# Blender 5.1.2
# www.blender.org
mtllib capsule.mtl
o Mball.001
v 0.593394 -1.863394 -0.986511
v 0.989590 -1.844395 -0.589451
v 0.199611 -1.841264 -1.133369
v -0.199640 1.840005 -1.133367
v -0.200000 -1.850000 -1.133311
v -0.593394 -1.863394 -0.986511
v -0.402605 -2.590000 -1.000000
v -0.210368 -2.692259 -1.040714
v -0.600000 -2.590000 -0.895717
v -0.989590 -1.844395 -0.589451
v -0.940144 -2.564455 -0.550211
v -1.133311 -1.850000 -0.200000
v -1.043711 -2.678769 -0.217047
v -1.133311 -1.850000 0.200000
v -1.043711 -2.678769 0.217047
v -0.989590 -1.844395 0.589451
v -0.940144 -2.564455 0.550211
v -0.591841 -3.315447 0.591884
v -0.801421 -3.330000 0.200000
v -0.402605 -2.590000 1.000000
v -0.210368 -2.692259 1.040714
v -0.200000 -3.330000 0.801421
v -0.600000 -2.590000 0.895717
v 0.200868 -2.697228 1.042746
v 0.200000 -3.330000 0.801421
v 0.535942 -2.561215 0.948428
v 0.591841 -3.315447 0.591884
v 0.940143 -2.564455 0.550211
v 1.040713 -2.692259 0.210368
v 0.801421 -3.330000 0.200000
v 1.040713 -2.692259 -0.210368
v 0.940143 -2.564455 -0.550211
v 0.591841 -3.315447 -0.591884
v 0.801421 -3.330000 -0.200000
v 0.535942 -2.561215 -0.948428
v 0.200868 -2.697228 -1.042746
v 0.200000 -3.330000 -0.801421
v -0.200000 -3.330000 -0.801421
v -0.200000 -3.627459 -0.600000
v 0.200000 -3.627459 -0.600000
v -0.591841 -3.315447 -0.591884
v -0.600000 -3.627459 -0.200000
v -0.200000 -3.912952 -0.200000
v -0.801421 -3.330000 -0.200000
v -0.600000 -3.627459 0.200000
v -0.200000 -3.912952 0.200000
v 0.200000 -3.912952 0.200000
v 0.200000 -3.912952 -0.200000
v 0.600000 -3.627459 0.200000
v 0.600000 -3.627459 -0.200000
v 0.200000 -3.627459 0.600000
v -0.200000 -3.627459 0.600000
v 1.133367 -1.840005 0.199640
v 1.133367 -1.840005 -0.199640
v 0.989590 -1.844395 0.589451
v 0.199611 -1.841264 1.133369
v -0.988626 1.846718 -0.590694
v 1.133311 1.850000 0.200000
v 1.133311 1.850000 -0.200000
v 0.988626 1.846718 0.590694
v 0.588570 1.847964 0.989924
v 0.200000 1.850000 1.133311
v -0.199640 1.840005 1.133367
v -0.588569 1.847964 0.989924
v -0.541814 2.564462 0.943798
v -0.941374 2.558613 0.549641
v -0.988626 1.846718 0.590694
v -1.046035 2.673212 0.217422
v -1.133367 1.839971 0.199654
v -1.133367 1.839971 -0.199654
v -1.046035 2.673212 -0.217422
v -0.588569 1.847964 -0.989924
v 0.200000 1.850000 -1.133311
v -0.206939 2.680549 -1.044815
v 0.204754 2.709022 -1.038466
v 0.541815 2.564462 -0.943798
v 0.588570 1.847964 -0.989924
v 0.941374 2.558613 -0.549641
v 0.988626 1.846718 -0.590694
v 1.047067 2.669372 -0.213980
v 1.047067 2.669372 0.213980
v 0.801421 3.330000 0.200000
v 0.801421 3.330000 -0.200000
v 0.941374 2.558613 0.549641
v 0.590550 3.314227 0.594516
v 0.541815 2.564462 0.943798
v 0.204754 2.709022 1.038466
v 0.200000 3.330000 0.801421
v -0.200000 3.330000 0.801421
v -0.206939 2.680549 1.044815
v -0.200000 3.627459 0.600000
v 0.200000 3.627459 0.600000
v -0.590550 3.314227 0.594516
v -0.600000 3.627459 0.200000
v -0.200000 3.912952 0.200000
v -0.801421 3.330000 0.200000
v -0.801421 3.330000 -0.200000
v -0.600000 3.627459 -0.200000
v -0.590550 3.314227 -0.594516
v -0.200000 3.627459 -0.600000
v -0.200000 3.912952 -0.200000
v 0.200000 3.627459 -0.600000
v 0.200000 3.912952 -0.200000
v -0.200000 3.330000 -0.801421
v 0.200000 3.330000 -0.801421
v 0.590550 3.314227 -0.594516
v -0.541814 2.564462 -0.943798
v -0.941374 2.558613 -0.549641
v 0.200000 3.912952 0.200000
v 0.600000 3.627459 -0.200000
v 0.600000 3.627459 0.200000
v -0.593394 -1.863394 0.986511
v -0.200000 -1.850000 1.133311
v 0.593394 -1.863394 0.986511
vn 0.5428 -0.0442 -0.8387
vn 0.8417 -0.0426 -0.5382
vn 0.1706 -0.0481 -0.9842
vn -0.1704 0.0482 -0.9842
vn -0.1680 -0.0476 -0.9846
vn -0.5423 -0.0421 -0.8391
vn -0.3822 -0.2007 -0.9020
vn -0.1627 -0.2282 -0.9599
vn -0.5814 -0.2042 -0.7876
vn -0.8420 -0.0419 -0.5378
vn -0.8329 -0.1899 -0.5199
vn -0.9842 -0.0493 -0.1699
vn -0.9582 -0.2210 -0.1817
vn -0.9842 -0.0493 0.1699
vn -0.9582 -0.2210 0.1817
vn -0.8414 -0.0425 0.5387
vn -0.8322 -0.1893 0.5212
vn -0.6318 -0.4440 0.6353
vn -0.8723 -0.4393 0.2147
vn -0.3822 -0.2007 0.9020
vn -0.1627 -0.2282 0.9599
vn -0.2196 -0.4396 0.8709
vn -0.5827 -0.2034 0.7868
vn 0.1705 -0.2250 0.9593
vn 0.2174 -0.4410 0.8708
vn 0.5157 -0.1897 0.8355
vn 0.6324 -0.4462 0.6333
vn 0.8287 -0.1893 0.5268
vn 0.9585 -0.2233 0.1774
vn 0.8718 -0.4398 0.2156
vn 0.9585 -0.2233 -0.1774
vn 0.8296 -0.1902 -0.5249
vn 0.6340 -0.4414 -0.6349
vn 0.8718 -0.4398 -0.2156
vn 0.5139 -0.1906 -0.8364
vn 0.1705 -0.2250 -0.9593
vn 0.2174 -0.4410 -0.8708
vn -0.2196 -0.4396 -0.8709
vn -0.2603 -0.6685 -0.6967
vn 0.2501 -0.6657 -0.7030
vn -0.6301 -0.4488 -0.6337
vn -0.6967 -0.6685 -0.2603
vn -0.3116 -0.8976 -0.3116
vn -0.8723 -0.4393 -0.2147
vn -0.7030 -0.6657 0.2501
vn -0.3049 -0.9023 0.3049
vn 0.3116 -0.8976 0.3116
vn 0.3049 -0.9023 -0.3049
vn 0.6967 -0.6685 0.2603
vn 0.7030 -0.6657 -0.2501
vn 0.2603 -0.6685 0.6967
vn -0.2501 -0.6657 0.7030
vn 0.9843 -0.0496 0.1693
vn 0.9843 -0.0496 -0.1693
vn 0.8407 -0.0435 0.5397
vn 0.1706 -0.0481 0.9842
vn -0.8403 0.0429 -0.5405
vn 0.9841 0.0483 0.1708
vn 0.9841 0.0483 -0.1708
vn 0.8400 0.0427 0.5409
vn 0.5397 0.0436 0.8408
vn 0.1699 0.0501 0.9842
vn -0.1704 0.0482 0.9842
vn -0.5392 0.0437 0.8410
vn -0.5194 0.1904 0.8331
vn -0.8286 0.1888 0.5270
vn -0.8403 0.0429 0.5405
vn -0.9582 0.2194 0.1834
vn -0.9843 0.0478 0.1702
vn -0.9843 0.0478 -0.1702
vn -0.9582 0.2194 -0.1834
vn -0.5392 0.0437 -0.8410
vn 0.1699 0.0501 -0.9842
vn -0.1769 0.2200 -0.9593
vn 0.1765 0.2284 -0.9574
vn 0.5190 0.1901 -0.8334
vn 0.5397 0.0436 -0.8408
vn 0.8288 0.1892 -0.5266
vn 0.8400 0.0427 -0.5409
vn 0.9587 0.2192 -0.1810
vn 0.9587 0.2192 0.1810
vn 0.8724 0.4387 0.2155
vn 0.8724 0.4388 -0.2155
vn 0.8288 0.1892 0.5266
vn 0.6335 0.4409 0.6359
vn 0.5190 0.1901 0.8334
vn 0.1765 0.2284 0.9574
vn 0.2167 0.4413 0.8708
vn -0.2164 0.4400 0.8715
vn -0.1769 0.2200 0.9593
vn -0.2602 0.6688 0.6965
vn 0.2498 0.6660 0.7029
vn -0.6318 0.4457 0.6342
vn -0.6967 0.6683 0.2605
vn -0.3117 0.8976 0.3117
vn -0.8722 0.4392 0.2156
vn -0.8722 0.4392 -0.2156
vn -0.7031 0.6656 -0.2504
vn -0.6335 0.4409 -0.6359
vn -0.2498 0.6660 -0.7029
vn -0.3049 0.9023 -0.3049
vn 0.2602 0.6688 -0.6965
vn 0.3117 0.8976 -0.3117
vn -0.2164 0.4400 -0.8715
vn 0.2167 0.4413 -0.8708
vn 0.6318 0.4457 -0.6342
vn -0.5194 0.1904 -0.8331
vn -0.8286 0.1888 -0.5270
vn 0.3049 0.9023 0.3049
vn 0.6967 0.6683 -0.2605
vn 0.7031 0.6656 0.2504
vn -0.5432 -0.0426 0.8385
vn -0.1680 -0.0476 0.9846
vn 0.5444 -0.0453 0.8376
s 1
f 1//1 79//79 2//2
f 3//3 77//77 1//1
f 5//5 72//72 4//4
f 5//5 7//7 6//6
f 9//9 6//6 7//7
f 9//9 10//10 6//6
f 11//11 12//12 10//10
f 13//13 14//14 12//12
f 17//17 14//14 15//15
f 18//18 17//17 19//19
f 22//22 20//20 18//18
f 23//23 18//18 20//20
f 24//24 22//22 25//25
f 25//25 26//26 24//24
f 26//26 27//27 28//28
f 33//33 32//32 34//34
f 37//37 35//35 33//33
f 36//36 38//38 8//8
f 40//40 38//38 37//37
f 38//38 39//39 41//41
f 42//42 41//41 43//43
f 39//39 43//43 41//41
f 41//41 42//42 44//44
f 42//42 19//19 44//44
f 43//43 45//45 42//42
f 48//48 46//46 43//43
f 50//50 47//47 48//48
f 50//50 30//30 49//49
f 49//49 27//27 47//47
f 51//51 47//47 27//27
f 47//47 52//52 46//46
f 40//40 43//43 39//39
f 40//40 37//37 33//33
f 33//33 35//35 32//32
f 50//50 33//33 34//34
f 31//31 53//53 29//29
f 55//55 53//53 60//60
f 114//114 60//60 61//61
f 6//6 57//57 72//72
f 54//54 58//58 53//53
f 56//56 61//61 62//62
f 64//64 66//66 67//67
f 69//69 66//66 68//68
f 70//70 68//68 71//71
f 3//3 4//4 73//73
f 73//73 74//74 75//75
f 73//73 76//76 77//77
f 77//77 78//78 79//79
f 59//59 78//78 80//80
f 80//80 82//82 81//81
f 85//85 84//84 82//82
f 88//88 86//86 85//85
f 87//87 89//89 90//90
f 92//92 89//89 88//88
f 89//89 91//91 93//93
f 94//94 93//93 95//95
f 91//91 95//95 93//93
f 93//93 94//94 96//96
f 98//98 96//96 94//94
f 98//98 99//99 97//97
f 98//98 100//100 99//99
f 102//102 101//101 103//103
f 102//102 104//104 100//100
f 105//105 102//102 106//106
f 75//75 104//104 105//105
f 104//104 107//107 99//99
f 99//99 107//107 108//108
f 103//103 95//95 109//109
f 110//110 109//109 111//111
f 100//100 104//104 99//99
f 99//99 108//108 97//97
f 71//71 96//96 97//97
f 101//101 94//94 95//95
f 109//109 91//91 92//92
f 92//92 88//88 85//85
f 111//111 92//92 85//85
f 85//85 86//86 84//84
f 111//111 85//85 82//82
f 110//110 82//82 83//83
f 106//106 110//110 83//83
f 78//78 106//106 83//83
f 78//78 83//83 80//80
f 76//76 106//106 78//78
f 76//76 105//105 106//106
f 4//4 107//107 74//74
f 72//72 108//108 107//107
f 66//66 93//93 96//96
f 66//66 96//96 68//68
f 65//65 93//93 66//66
f 65//65 89//89 93//93
f 63//63 65//65 64//64
f 62//62 90//90 63//63
f 61//61 84//84 86//86
f 84//84 58//58 81//81
f 59//59 81//81 58//58
f 112//112 67//67 16//16
f 113//113 64//64 112//112
f 56//56 63//63 113//113
f 56//56 26//26 114//114
f 24//24 113//113 21//21
f 20//20 113//113 112//112
f 28//28 53//53 55//55
f 31//31 30//30 34//34
f 27//27 49//49 30//30
f 26//26 55//55 114//114
f 25//25 51//51 27//27
f 51//51 22//22 52//52
f 52//52 22//22 18//18
f 45//45 52//52 18//18
f 13//13 19//19 15//15
f 18//18 23//23 17//17
f 45//45 18//18 19//19
f 16//16 69//69 14//14
f 12//12 69//69 70//70
f 10//10 70//70 57//57
f 9//9 41//41 11//11
f 41//41 9//9 7//7
f 38//38 7//7 8//8
f 36//36 5//5 3//3
f 32//32 1//1 2//2
f 35//35 3//3 1//1
f 32//32 54//54 31//31
f 50//50 40//40 33//33
f 17//17 112//112 16//16
f 79//79 59//59 54//54
f 110//110 106//106 103//103
f 102//102 103//103 106//106
f 108//108 70//70 71//71
f 62//62 86//86 87//87
f 3//3 5//5 4//4
f 5//5 6//6 72//72
f 5//5 8//8 7//7
f 9//9 11//11 10//10
f 11//11 13//13 12//12
f 13//13 15//15 14//14
f 17//17 16//16 14//14
f 17//17 15//15 19//19
f 22//22 21//21 20//20
f 24//24 21//21 22//22
f 25//25 27//27 26//26
f 30//30 29//29 28//28
f 27//27 30//30 28//28
f 32//32 31//31 34//34
f 37//37 36//36 35//35
f 36//36 37//37 38//38
f 40//40 39//39 38//38
f 42//42 45//45 19//19
f 43//43 46//46 45//45
f 48//48 47//47 46//46
f 50//50 49//49 47//47
f 50//50 34//34 30//30
f 47//47 51//51 52//52
f 40//40 48//48 43//43
f 31//31 54//54 53//53
f 2//2 79//79 54//54
f 112//112 64//64 67//67
f 1//1 77//77 79//79
f 54//54 59//59 58//58
f 60//60 53//53 58//58
f 56//56 62//62 63//63
f 64//64 65//65 66//66
f 69//69 67//67 66//66
f 70//70 69//69 68//68
f 73//73 4//4 74//74
f 73//73 75//75 76//76
f 77//77 76//76 78//78
f 59//59 79//79 78//78
f 80//80 83//83 82//82
f 84//84 81//81 82//82
f 88//88 87//87 86//86
f 87//87 88//88 89//89
f 92//92 91//91 89//89
f 98//98 97//97 96//96
f 98//98 101//101 100//100
f 102//102 100//100 101//101
f 102//102 105//105 104//104
f 75//75 74//74 104//104
f 104//104 74//74 107//107
f 103//103 101//101 95//95
f 110//110 103//103 109//109
f 108//108 71//71 97//97
f 71//71 68//68 96//96
f 101//101 98//98 94//94
f 109//109 95//95 91//91
f 111//111 109//109 92//92
f 110//110 111//111 82//82
f 76//76 75//75 105//105
f 4//4 72//72 107//107
f 72//72 57//57 108//108
f 65//65 90//90 89//89
f 63//63 90//90 65//65
f 62//62 87//87 90//90
f 61//61 60//60 84//84
f 84//84 60//60 58//58
f 59//59 80//80 81//81
f 113//113 63//63 64//64
f 56//56 114//114 61//61
f 114//114 55//55 60//60
f 56//56 24//24 26//26
f 24//24 56//56 113//113
f 20//20 21//21 113//113
f 28//28 29//29 53//53
f 31//31 29//29 30//30
f 26//26 28//28 55//55
f 51//51 25//25 22//22
f 23//23 20//20 112//112
f 45//45 46//46 52//52
f 13//13 44//44 19//19
f 16//16 67//67 69//69
f 12//12 14//14 69//69
f 10//10 12//12 70//70
f 44//44 13//13 11//11
f 41//41 44//44 11//11
f 6//6 10//10 57//57
f 38//38 41//41 7//7
f 36//36 8//8 5//5
f 32//32 35//35 1//1
f 35//35 36//36 3//3
f 32//32 2//2 54//54
f 50//50 48//48 40//40
f 17//17 23//23 112//112
f 3//3 73//73 77//77
f 108//108 57//57 70//70
f 62//62 61//61 86//86
